<?xml version="1.0" encoding="utf-8" ?>
<svg xmlns="http://www.w3.org/2000/svg" xmlns:xlink="http://www.w3.org/1999/xlink" width="512" height="512">
	<path fill="#FEFEFE" transform="scale(0.666667 0.666667)" d="M0 0.1875C1.70241 -0.185587 3.61693 -0.00979729 5.35479 -0.0090068C8.44963 -0.00759905 11.5445 -0.00845752 14.6393 -0.00881649C26.6055 -0.0102045 38.5716 -0.00977825 50.5378 -0.00976663C98.2915 -0.00972023 146.045 -0.00952629 193.799 -0.0102393C385.199 -0.0130972 576.6 -0.00755292 768 0L768 767.812C766.298 768.186 764.383 768.01 762.645 768.009C759.55 768.008 756.456 768.008 753.361 768.009C741.395 768.01 729.428 768.01 717.462 768.01C669.708 768.01 621.955 768.01 574.201 768.01C382.801 768.013 191.4 768.008 -0 768L0 0.1875Z"/>
	<path fill="#383737" transform="scale(0.666667 0.666667)" d="M381.074 222.124C384.093 221.955 386.677 222.098 389.607 222.895C399.351 225.547 408.941 229.498 418.457 232.876C428.88 236.577 439.415 239.99 449.812 243.745C457.43 246.496 464.934 249.57 472.534 252.372C482.877 256.186 493.272 259.85 503.611 263.681C511.21 266.496 519.914 268.997 526.556 273.69C531.179 276.956 534.362 281.658 535.277 287.293C536.168 292.785 535.437 299.447 535.409 305.042C535.343 318.137 535.265 331.231 535.283 344.325C535.321 371.959 535.425 399.591 535.43 427.225C535.432 435.423 535.426 443.621 535.406 451.819C535.394 457.017 535.601 462.362 535.081 467.533C534.615 472.166 533.026 476.977 530.213 480.727C526.979 485.039 522.285 488.526 517.665 491.227C510.825 495.228 503.481 498.435 496.312 501.795C483.794 507.663 471.186 513.344 458.677 519.22C448.737 523.89 438.781 528.596 428.939 533.468C420.191 537.799 411.443 542.414 402.414 546.124C398.093 547.9 394.16 549.117 389.533 549.794C384.26 550.048 379.857 549.294 374.886 547.591C359.21 542.219 344.189 533.973 329.057 527.231C310.8 519.097 292.608 511.031 274.516 502.53C264.861 497.994 254.488 493.835 245.747 487.651C239.579 483.287 235.7 477.441 234.491 469.989C233.295 462.614 234.025 454.404 234.055 446.914C234.113 432.866 234.206 418.817 234.158 404.769C234.068 378.286 234.03 351.805 234.01 325.321C234.004 317.972 233.981 310.624 233.898 303.275C233.84 298.145 233.593 292.916 234.027 287.801C234.314 284.421 235.71 280.945 237.754 278.25C240.523 274.601 244.538 272.243 248.61 270.323C262.96 263.557 278.648 259.127 293.502 253.513C299.83 251.122 306.04 248.43 312.375 246.049C323.912 241.713 335.579 237.718 347.132 233.415C352.624 231.369 358.104 229.29 363.592 227.234C369.339 225.08 374.97 222.956 381.074 222.124Z"/>
	<path fill="#FEFEFE" transform="scale(0.666667 0.666667)" d="M450.468 468.938C454.128 470.284 457.703 472.789 461.2 474.568C472.589 480.363 484.06 486.065 494.931 492.799L480.645 499.658L450.041 514.616C450.047 503.856 450.061 493.096 450.09 482.336C450.098 479.474 450.106 476.612 450.122 473.75C450.132 472.138 449.971 470.486 450.468 468.938Z"/>
	<path fill="#FEFEFE" transform="scale(0.666667 0.666667)" d="M318.739 469.688C319.47 469.496 319.387 469.439 320.179 469.688L320.247 514.206L289.733 500.245L273.461 492.546L318.739 469.688Z"/>
	<path fill="#FEFEFE" transform="scale(0.666667 0.666667)" d="M445.252 413.062L445.672 413.004L446.232 413.438L446.495 461.235L416.4 445.871L399.83 437.462C408.167 431.869 417.877 427.849 426.756 423.165C432.924 419.912 438.868 415.81 445.252 413.062Z"/>
	<path fill="#FEFEFE" transform="scale(0.666667 0.666667)" d="M324.131 411.938C325.257 411.759 327.34 413.418 328.363 414.045C331.547 415.997 334.767 417.782 338.077 419.512C350.298 425.899 362.705 432.027 375.243 437.771L358.786 445.508L324.167 461.662C323.812 459.868 324 457.853 323.998 456.023C323.994 452.659 323.992 449.296 323.99 445.932C323.981 434.701 323.391 423.114 324.131 411.938Z"/>
	<path fill="#FEFEFE" transform="scale(0.666667 0.666667)" d="M450.057 253.312C450.479 253.223 450.648 253.157 451.129 253.227C452.59 253.441 454.384 254.36 455.777 254.878C458.856 256.024 461.94 257.147 465.036 258.248C475.168 261.851 485.248 265.587 495.375 269.204C502.638 271.797 510.079 274.194 517.082 277.43C514.624 279.137 511.627 280.193 508.878 281.356C504.878 283.049 500.887 284.754 496.909 286.5L450.004 306.437L450.057 253.312Z"/>
	<path fill="#FEFEFE" transform="scale(0.666667 0.666667)" d="M319.449 252.188C320.085 252.09 319.719 252.082 320.531 252.375L320.584 304.925L273.334 286.313L252.81 277.39C253.615 275.978 312.651 254.602 319.449 252.188Z"/>
	<path fill="#FEFEFE" transform="scale(0.666667 0.666667)" d="M242.788 369.562C247.51 372.137 252.526 374.132 257.353 376.502C268.793 382.117 280.192 387.829 291.651 393.404C298.311 396.645 305.838 399.639 311.966 403.788C309.532 405.552 306.43 406.734 303.721 408.037C298.765 410.421 293.807 412.795 288.884 415.247L242.224 437.74C242.258 423.577 242.433 409.412 242.413 395.25C242.401 387.163 242.001 378.966 242.254 370.893C242.272 370.334 242.462 369.998 242.788 369.562Z"/>
	<path fill="#FEFEFE" transform="scale(0.666667 0.666667)" d="M525.567 369.562L526.437 369.422L526.807 369.75L526.873 439.041C521.422 435.74 515.514 433.114 509.755 430.399C499.857 425.733 489.859 421.271 479.891 416.756C471.766 413.062 463.089 409.422 455.629 404.5L525.567 369.562Z"/>
	<path fill="#FEFEFE" transform="scale(0.666667 0.666667)" d="M450.789 409.688C452.659 409.316 465.599 416.375 468.339 417.663C487.584 426.709 506.816 436.238 526.483 444.316C526.491 449.359 526.495 454.403 526.485 459.446C526.478 462.786 526.598 466.219 526.028 469.523C525.044 475.228 521.96 478.086 517.4 481.162L500.736 489.456L450.437 463.042L450.789 409.688Z"/>
	<path fill="#FEFEFE" transform="scale(0.666667 0.666667)" d="M393.441 440.062C394.615 439.92 395.956 441.032 396.967 441.636C399.336 443.051 401.74 444.349 404.192 445.612C418.125 452.787 432.116 460.21 446.235 466.979L446.426 515.686L429.272 524.344L393.316 541.889L393.441 440.062Z"/>
	<path fill="#FEFEFE" transform="scale(0.666667 0.666667)" d="M316.021 408.404C317.031 408.365 317.778 408.489 318.75 408.714C319.836 410.181 319.455 442.145 319.543 447.273C319.635 452.66 319.709 458.096 320.27 463.455L269.074 489.615L253.714 482.248C251.299 481.028 248.761 479.486 246.852 477.547C241.535 472.147 242.361 464.428 242.335 457.486C242.318 452.987 242.316 448.489 242.318 443.99C243.488 442.323 271.916 429.685 276.342 427.561C289.516 421.24 302.515 413.946 316.021 408.404Z"/>
	<path fill="#FEFEFE" transform="scale(0.666667 0.666667)" d="M383.644 440.062C384.093 439.991 384.485 439.984 384.938 439.985C385.382 443.501 385.118 447.312 385.13 450.861C385.156 457.943 385.175 465.025 385.191 472.107C385.245 495.925 385.397 519.762 385.064 543.577L343.688 525.064L324.179 515.276L324.355 467.547L383.644 440.062Z"/>
	<path fill="#FEFEFE" transform="scale(0.666667 0.666667)" d="M444.212 317.438C445.005 317.487 444.672 317.344 445.234 317.812L445.166 404.806L394.312 432.359C394.168 432.187 393.778 431.639 393.725 431.438C393.388 430.16 393.721 427.612 393.72 426.214C393.716 421.023 393.711 415.832 393.706 410.641C393.683 386.8 394.192 362.827 393.44 339.002L444.212 317.438Z"/>
	<path fill="#FEFEFE" transform="scale(0.666667 0.666667)" d="M325.526 315.188C326.961 315.291 328.603 316.215 329.934 316.767C333.654 318.309 337.322 319.969 341.052 321.489C355.853 327.522 370.784 333.271 385.484 339.544C385.081 347.76 385.371 356.134 385.346 364.366C385.298 380.008 385.245 395.649 385.201 411.29C385.187 416.426 385.174 421.562 385.147 426.698C385.135 428.924 385.501 431.98 384.723 434.062C382.945 433.71 381.139 432.711 379.474 431.975C375.974 430.427 372.528 428.769 369.088 427.095C354.196 419.849 339.664 412.628 325.383 404.225C324.902 402.962 325.339 400.913 325.383 399.535C325.491 396.18 325.457 392.811 325.469 389.453C325.534 371.222 325.516 352.989 325.472 334.758C325.462 330.593 325.421 326.43 325.352 322.265C325.314 319.959 325.018 317.435 325.526 315.188Z"/>
	<path fill="#FEFEFE" transform="scale(0.666667 0.666667)" d="M523.484 283.534L525.75 283.562C526.633 284.529 526.616 285.479 526.704 286.757C527.258 294.863 526.822 303.278 526.849 311.426C526.906 328.882 526.869 346.344 527.202 363.797C522.339 365.442 517.613 367.814 513 370.06C506.524 373.213 500.087 376.435 493.646 379.656C480.633 386.163 467.396 392.251 454.505 398.983L451.325 400.576L451.745 313.675C451.965 312.906 454.929 312.032 455.796 311.691C469.373 306.348 482.871 300.851 496.275 295.084C505.28 291.21 514.254 286.814 523.484 283.534Z"/>
	<path fill="#FEFEFE" transform="scale(0.666667 0.666667)" d="M243.803 283.312C244.759 283.12 245.453 283.198 246.375 283.488C251.891 285.223 257.308 288.246 262.706 290.425C273.185 294.656 283.861 298.38 294.363 302.543C302.476 305.759 310.508 309.574 318.81 312.255C319.095 322.655 320.08 398.268 318.666 400.312L317.812 400.215C314.974 399.371 312.216 397.793 309.55 396.494C305.373 394.458 301.178 392.458 297.004 390.416C278.676 381.448 260.61 371.906 242.144 363.219L242.369 286.125C242.452 284.61 242.656 284.283 243.803 283.312Z"/>
	<path fill="#FEFEFE" transform="scale(0.666667 0.666667)" d="M382.412 230.363C385.13 230.143 387.997 231.159 390.549 231.986C394 233.103 397.432 234.281 400.875 235.423C416.123 240.481 431.194 245.913 446.255 251.501L446.515 307.775L388.713 332.26C387.005 332.686 384.047 331.088 382.397 330.427C376.949 328.244 371.554 325.943 366.142 323.675C352.348 317.893 338.405 312.426 324.805 306.198C324.5 304.423 324.687 302.416 324.689 300.615C324.692 297.086 324.694 293.558 324.697 290.03C324.706 276.837 324.72 263.644 324.735 250.452C328.833 249.463 332.873 247.474 336.825 245.982C344.985 242.902 353.24 240.058 361.443 237.098C368.273 234.633 375.224 231.49 382.412 230.363Z"/>
</svg>
