<?xml version="1.0" encoding="utf-8" ?>
<svg xmlns="http://www.w3.org/2000/svg" xmlns:xlink="http://www.w3.org/1999/xlink" width="512" height="512">
	<defs>
		<linearGradient id="gradient_0" gradientUnits="userSpaceOnUse" x1="468.55899" y1="71.5774" x2="460.29501" y2="136.95">
			<stop offset="0" stop-color="#535353"/>
			<stop offset="1" stop-color="#8F8F8E"/>
		</linearGradient>
	</defs>
	<path fill="url(#gradient_0)" transform="scale(0.666667 0.666667)" d="M385.16 60.06L546.572 135.442C538.914 139.942 529.653 143.455 521.284 146.454C519.188 147.44 515.582 149.597 513.413 149.808C499.285 156.146 484.832 161.851 470.625 168.029C461.392 172.044 452.252 176.248 443.062 180.358C440.208 181.635 437.239 182.647 434.397 183.938C429.279 186.262 424.267 188.771 419.101 191.008C412.839 193.719 406.543 196.375 400.227 198.955C395.826 200.752 389.206 202.439 385.652 205.532L384.293 205.459L381.843 205.821L381.681 205.174C382.481 204.75 383.221 204.342 383.96 203.812L384.281 132.352L384.377 129.542C384.327 127.259 384.821 124.887 384.953 122.596C385.31 116.361 385.09 109.98 385.055 103.732C385.038 100.716 385.496 95.8741 384.284 93.138L384.038 92.625C385.136 90.4872 384.977 87.7595 384.973 85.4052C384.966 81.7914 384.954 78.1776 384.94 74.5637C384.93 71.245 384.291 66.5167 385.127 63.3769L385.684 63.1875L385.684 61.875C385.22 61.1767 385.315 61.4908 385.213 60.6532L385.16 60.06Z"/>
	<path fill="#898989" transform="scale(0.666667 0.666667)" d="M384.377 129.542L384.568 129.258C385.119 128.419 385.38 127.962 385.38 126.918C386.665 126.359 388.236 126.786 389.538 127.161C390.992 127.579 393.204 127.611 394.773 127.798C395.714 127.909 394.521 127.757 395.87 128.148L396.77 128.175C397.882 128.18 398.685 128.416 399.757 128.676C401.157 129.015 402.579 128.674 403.965 129.115C404.732 129.36 405.434 129.244 406.2 129.488C407.911 130.033 410.061 129.676 411.825 130.238C413.533 130.782 415.674 130.431 417.436 130.992C418.511 131.335 419.564 130.914 420.605 131.132C420.885 131.191 421.088 131.475 421.37 131.523C422.098 131.645 422.515 131.341 423.223 131.702C424.175 132.187 425.236 131.677 426.23 131.882C426.51 131.94 426.713 132.226 426.995 132.273C427.726 132.393 428.206 132.147 428.954 132.419C429.995 132.798 431.675 132.763 432.844 132.972C433.506 133.089 433.823 132.88 434.459 133.205C435.387 133.678 437.377 133.468 438.563 133.717L439.862 133.827L440.296 133.966C441.627 134.339 443.216 134.182 444.663 134.494L445.487 134.577L445.891 134.711C447.144 135.061 448.592 134.962 449.914 135.228C450.574 135.361 451.209 135.386 451.876 135.543C453.013 135.811 454.154 135.72 455.344 135.972L456.737 136.077L457.177 136.212C458.404 136.556 459.865 136.483 461.164 136.728L462.255 136.833L472.235 138.139L474.616 138.523C476.504 138.874 478.597 138.656 480.436 139.242C481.64 139.626 483.076 139.461 484.37 139.773L485.612 139.827L486.061 139.992C487.318 140.392 488.941 140.199 490.315 140.469C490.956 140.595 491.509 140.526 492.156 140.717C493.124 141.003 494.14 140.821 495.137 140.914C497.361 141.121 499.69 141.531 501.942 141.78L502.694 141.847C503.258 141.9 503.552 141.995 504.102 142.159C505.71 142.637 507.422 142.347 509.12 142.773L510.22 142.753C511.206 142.714 511.708 142.966 512.625 143.108C513.468 143.239 513.959 143.339 514.745 143.523L515.987 143.577L516.458 143.739C517.013 143.916 517.226 143.899 517.786 143.895C519.241 143.884 521.079 144.352 522.188 145.316L521.142 145.974L521.284 146.454C519.188 147.44 515.582 149.597 513.413 149.808C512.141 148.818 510.456 147.867 508.77 148.08L508.031 148.197L507.357 147.912C505.935 147.573 504.302 147.867 502.939 147.508L501.752 147.163C501.114 147.065 499.995 146.785 499.401 146.805L497.755 146.842C496.855 146.872 495.656 146.662 494.75 146.51C494.016 146.387 493.534 146.078 492.747 146.071L492.13 146.092L491.005 146.092L490.25 146.135C489.527 145.718 489.171 145.633 488.336 145.615C487.665 145.6 487.475 145.639 486.758 145.465C486.259 145.345 485.922 145.265 485.394 145.265L483.75 145.269C482.856 145.06 481.887 145.048 481.031 144.822C479.795 144.495 480.904 144.503 479.784 144.553C478.357 144.617 477.124 144.224 475.738 144.187C475.101 144.17 475.039 144.06 474.502 143.745C472.824 143.913 471.135 143.663 469.48 143.357C468.597 143.193 467.909 143.048 467.005 143.092C466 143.14 466.229 143.113 465.526 142.515L464.25 142.644C463.791 142.396 463.563 142.287 463.026 142.305L461.38 142.342C460.421 142.374 460.533 142.33 459.759 141.873C458.342 142.097 455.254 141.785 454.134 141.123C452.717 141.347 449.629 141.035 448.509 140.373C447.092 140.597 444.004 140.285 442.884 139.623C441.211 139.887 439.845 139.287 438.125 139.385C437.402 138.968 437.046 138.883 436.211 138.865C435.54 138.85 435.35 138.889 434.633 138.715C434.134 138.595 433.797 138.515 433.269 138.515L431.625 138.516C430.923 138.107 431.201 138.139 430.6 138.117L430.145 138.109C429.247 137.992 428.562 137.803 427.63 137.842C426.694 137.881 426.888 137.892 426.176 137.451C425.574 137.468 424.959 137.534 424.368 137.397C423.577 137.215 422.849 137.021 422.027 137.021L420.375 137.019C419.481 136.81 418.512 136.798 417.656 136.572C416.436 136.25 417.505 136.27 416.447 136.27C415.299 136.27 414.913 135.976 413.982 135.821C413.494 135.739 412.988 135.972 412.5 135.891C412.208 135.842 412.024 135.494 411.732 135.446C410.93 135.313 409.958 135.721 409.125 135.519C408.222 135.299 407.273 135.301 406.406 135.072C405.186 134.75 406.255 134.77 405.197 134.77C404.101 134.77 403.685 134.873 402.732 134.321C401.985 134.428 401.524 134.427 400.795 134.226C399.771 133.944 398.831 134.242 397.875 134.019L397.219 133.768C396.238 133.583 396.546 133.795 395.776 133.14C394.839 133.308 393.848 133.466 392.906 133.197L392.232 132.912C391.766 132.801 390.368 132.539 389.901 132.555L388.255 132.592C387.294 132.642 386.42 132.264 385.53 132.37C384.916 132.443 385.365 132.466 384.662 132.399L384.281 132.352L384.377 129.542Z"/>
	<defs>
		<linearGradient id="gradient_1" gradientUnits="userSpaceOnUse" x1="448.82199" y1="139.96001" x2="439.59698" y2="211.496">
			<stop offset="0" stop-color="#939392"/>
			<stop offset="1" stop-color="#D6D4D4"/>
		</linearGradient>
	</defs>
	<path fill="url(#gradient_1)" transform="scale(0.666667 0.666667)" d="M384.281 132.352L384.662 132.399C385.365 132.466 384.916 132.443 385.53 132.37C386.42 132.264 387.294 132.642 388.255 132.592L389.901 132.555C390.368 132.539 391.766 132.801 392.232 132.912L392.906 133.197C393.848 133.466 394.839 133.308 395.776 133.14C396.546 133.795 396.238 133.583 397.219 133.768L397.875 134.019C398.831 134.242 399.771 133.944 400.795 134.226C401.524 134.427 401.985 134.428 402.732 134.321C403.685 134.873 404.101 134.77 405.197 134.77C406.255 134.77 405.186 134.75 406.406 135.072C407.273 135.301 408.222 135.299 409.125 135.519C409.958 135.721 410.93 135.313 411.732 135.446C412.024 135.494 412.208 135.842 412.5 135.891C412.988 135.972 413.494 135.739 413.982 135.821C414.913 135.976 415.299 136.27 416.447 136.27C417.505 136.27 416.436 136.25 417.656 136.572C418.512 136.798 419.481 136.81 420.375 137.019L422.027 137.021C422.849 137.021 423.577 137.215 424.368 137.397C424.959 137.534 425.574 137.468 426.176 137.451C426.888 137.892 426.694 137.881 427.63 137.842C428.562 137.803 429.247 137.992 430.145 138.109L430.6 138.117C431.201 138.139 430.923 138.107 431.625 138.516L433.269 138.515C433.797 138.515 434.134 138.595 434.633 138.715C435.35 138.889 435.54 138.85 436.211 138.865C437.046 138.883 437.402 138.968 438.125 139.385C439.845 139.287 441.211 139.887 442.884 139.623C444.004 140.285 447.092 140.597 448.509 140.373C449.629 141.035 452.717 141.347 454.134 141.123C455.254 141.785 458.342 142.097 459.759 141.873C460.533 142.33 460.421 142.374 461.38 142.342L463.026 142.305C463.563 142.287 463.791 142.396 464.25 142.644L465.526 142.515C466.229 143.113 466 143.14 467.005 143.092C467.909 143.048 468.597 143.193 469.48 143.357C471.135 143.663 472.824 143.913 474.502 143.745C475.039 144.06 475.101 144.17 475.738 144.187C477.124 144.224 478.357 144.617 479.784 144.553C480.904 144.503 479.795 144.495 481.031 144.822C481.887 145.048 482.856 145.06 483.75 145.269L485.394 145.265C485.922 145.265 486.259 145.345 486.758 145.465C487.475 145.639 487.665 145.6 488.336 145.615C489.171 145.633 489.527 145.718 490.25 146.135L491.005 146.092L492.13 146.092L492.747 146.071C493.534 146.078 494.016 146.387 494.75 146.51C495.656 146.662 496.855 146.872 497.755 146.842L499.401 146.805C499.995 146.785 501.114 147.065 501.752 147.163L502.939 147.508C504.302 147.867 505.935 147.573 507.357 147.912L508.031 148.197L508.77 148.08C510.456 147.867 512.141 148.818 513.413 149.808C499.285 156.146 484.832 161.851 470.625 168.029C461.392 172.044 452.252 176.248 443.062 180.358C440.208 181.635 437.239 182.647 434.397 183.938C429.279 186.262 424.267 188.771 419.101 191.008C412.839 193.719 406.543 196.375 400.227 198.955C395.826 200.752 389.206 202.439 385.652 205.532L384.293 205.459L381.843 205.821L381.681 205.174C382.481 204.75 383.221 204.342 383.96 203.812L384.281 132.352Z"/>
	<defs>
		<linearGradient id="gradient_2" gradientUnits="userSpaceOnUse" x1="303.96701" y1="73.173698" x2="300.194" y2="201.28999">
			<stop offset="0" stop-color="#565656"/>
			<stop offset="1" stop-color="#8B8A8A"/>
		</linearGradient>
	</defs>
	<path fill="url(#gradient_2)" transform="scale(0.666667 0.666667)" d="M353.56 73.6882L353.625 73.6019C356.335 71.9176 359.582 70.653 362.47 69.292C367.528 66.9079 372.577 64.4907 377.704 62.2603C379.171 61.6224 382.387 59.8409 383.957 59.8125C384.366 59.8051 384.759 59.9775 385.16 60.06L385.213 60.6532C385.315 61.4908 385.22 61.1767 385.684 61.875L385.684 63.1875L385.127 63.3769C384.291 66.5167 384.93 71.245 384.94 74.5637C384.954 78.1776 384.966 81.7914 384.973 85.4052C384.977 87.7595 385.136 90.4872 384.038 92.625L384.284 93.138C385.496 95.8741 385.038 100.716 385.055 103.732C385.09 109.98 385.31 116.361 384.953 122.596C384.821 124.887 384.327 127.259 384.377 129.542L384.281 132.352L383.96 203.812C383.221 204.342 382.481 204.75 381.681 205.174C367.982 201.701 354.743 196.131 341.66 190.866C315.751 180.442 290.357 168.825 264.76 157.667C254.849 153.347 244.88 149.127 234.902 144.965C228.767 142.407 222.559 140.165 216.814 136.762L353.56 73.6882Z"/>
	<path fill="#4F4E4E" transform="scale(0.666667 0.666667)" d="M353.56 73.6882L353.625 73.6019C356.335 71.9176 359.582 70.653 362.47 69.292C367.528 66.9079 372.577 64.4907 377.704 62.2603C379.171 61.6224 382.387 59.8409 383.957 59.8125C384.366 59.8051 384.759 59.9775 385.16 60.06L385.213 60.6532C385.315 61.4908 385.22 61.1767 385.684 61.875L385.684 63.1875L385.127 63.3769C384.291 66.5167 384.93 71.245 384.94 74.5637C384.528 75.2363 384.612 76.0963 384.566 76.875C383.908 77.8622 381.926 77.2858 380.709 77.5969C379.888 77.8071 379.162 77.6586 378.375 77.8176C375.757 78.3471 371.649 78.6732 369.002 78.1912C368.293 78.0622 367.791 77.8462 367.052 77.8352C365.17 77.8071 362.705 78.1346 360.92 77.6753C360.219 77.495 360.562 77.5244 359.897 77.5056C359.029 77.481 358.435 77.5128 357.6 77.1961C356.109 76.6309 353.717 76.896 352.769 75.7262L353.233 75.3193C353.795 74.6851 353.708 74.4418 353.56 73.6882Z"/>
	<defs>
		<linearGradient id="gradient_3" gradientUnits="userSpaceOnUse" x1="511.64401" y1="728.12903" x2="559.26099" y2="372.26099">
			<stop offset="0" stop-color="#3B3B3B"/>
			<stop offset="1" stop-color="#5B5B5B"/>
		</linearGradient>
	</defs>
	<path fill="url(#gradient_3)" transform="scale(0.666667 0.666667)" d="M572.754 361.128L573.235 361.103L574.285 360.013C575.017 359.025 575.217 358.356 576.55 358.112C577.788 357.885 576.692 358.162 577.816 357.866L578.33 357.726L585.75 355.656L586.38 355.384C588.34 355.005 586.184 355.723 587.599 355.245C590.359 354.314 593.21 353.122 596.053 352.504C596.6 352.386 596.987 352.313 597.498 352.07C598.018 351.824 597.699 351.907 598.261 351.811C598.869 351.708 598.557 351.796 599.226 351.57L602.051 350.613L604.95 349.749C606.968 349.305 610.208 348.493 612.021 347.62C612.784 347.252 613.653 347.136 614.46 346.867L615 346.679L616.125 346.3C617.73 345.523 620.611 344.524 622.396 344.161C626.804 343.267 630.943 341.137 635.336 340.217C635.899 340.099 636.388 339.9 636.938 339.748C638.101 339.425 639.133 338.892 640.312 338.634C645.1 337.583 649.717 335.323 654.482 334.2L658.317 333.025C659.09 332.806 659.803 332.498 660.564 332.27C661.33 332.04 662.019 331.685 662.762 331.453C664.225 330.997 665.723 330.413 667.191 329.996L667.961 329.826C669.472 329.166 671.465 328.711 672.838 327.835C673.526 327.395 673.206 327.501 674.018 327.318C674.825 327.136 674.507 327.311 675.007 327.011C675.837 326.512 676.84 325.946 677.784 325.721L678.072 325.674L678.519 325.022L679.405 324.897C679.748 323.836 680.257 323.287 681.002 322.502C681.315 322.784 681.477 323.127 681.691 323.486L681.765 385.94L681.373 560.047C673.926 564.334 666.134 567.942 658.551 571.969C634.738 584.615 610.641 596.711 586.579 608.872C570.688 616.904 555.017 625.367 539.203 633.548C517.253 644.903 495.167 655.976 473.102 667.105C452.02 677.74 430.949 688.399 409.875 699.05C401.061 703.505 392.309 709.326 382.968 712.514L383.095 557.458L383.293 555.243C383.93 559.298 383.581 563.845 383.587 567.965C383.599 575.835 383.6 583.705 383.6 591.574C386.566 590.493 389.395 588.917 392.225 587.518C397.845 584.739 403.415 581.875 409.008 579.042C425.105 570.889 441.225 562.784 457.326 554.638C483.758 541.264 510.17 527.864 536.625 514.538C544.075 510.785 551.528 507.017 559.017 503.343C563.55 501.119 568.156 499.108 572.592 496.686L572.665 441.285L572.711 440.746L572.754 361.128Z"/>
	<defs>
		<linearGradient id="gradient_4" gradientUnits="userSpaceOnUse" x1="615.01099" y1="343.79199" x2="638.79199" y2="418.39001">
			<stop offset="0" stop-color="#898888"/>
			<stop offset="1" stop-color="#B7B6B6"/>
		</linearGradient>
	</defs>
	<path fill="url(#gradient_4)" transform="scale(0.666667 0.666667)" d="M572.754 361.128L573.235 361.103L574.285 360.013C575.017 359.025 575.217 358.356 576.55 358.112C577.788 357.885 576.692 358.162 577.816 357.866L578.33 357.726L585.75 355.656L586.38 355.384C588.34 355.005 586.184 355.723 587.599 355.245C590.359 354.314 593.21 353.122 596.053 352.504C596.6 352.386 596.987 352.313 597.498 352.07C598.018 351.824 597.699 351.907 598.261 351.811C598.869 351.708 598.557 351.796 599.226 351.57L602.051 350.613L604.95 349.749C606.968 349.305 610.208 348.493 612.021 347.62C612.784 347.252 613.653 347.136 614.46 346.867L615 346.679L616.125 346.3C617.73 345.523 620.611 344.524 622.396 344.161C626.804 343.267 630.943 341.137 635.336 340.217C635.899 340.099 636.388 339.9 636.938 339.748C638.101 339.425 639.133 338.892 640.312 338.634C645.1 337.583 649.717 335.323 654.482 334.2L658.317 333.025C659.09 332.806 659.803 332.498 660.564 332.27C661.33 332.04 662.019 331.685 662.762 331.453C664.225 330.997 665.723 330.413 667.191 329.996L667.961 329.826C669.472 329.166 671.465 328.711 672.838 327.835C673.526 327.395 673.206 327.501 674.018 327.318C674.825 327.136 674.507 327.311 675.007 327.011C675.837 326.512 676.84 325.946 677.784 325.721L678.072 325.674L678.519 325.022L679.405 324.897C679.748 323.836 680.257 323.287 681.002 322.502C681.315 322.784 681.477 323.127 681.691 323.486L681.765 385.94C680.793 387.791 679.255 389.016 677.486 390.089C668.589 395.48 658.464 399.735 649.108 404.292C630.614 413.3 612.053 422.178 593.495 431.055C586.622 434.342 579.485 437.283 572.711 440.746L572.754 361.128Z"/>
	<defs>
		<linearGradient id="gradient_5" gradientUnits="userSpaceOnUse" x1="344.67599" y1="462.59299" x2="612.19397" y2="379.69699">
			<stop offset="0" stop-color="#B0AFAF"/>
			<stop offset="1" stop-color="#E7E7E7"/>
		</linearGradient>
	</defs>
	<path fill="url(#gradient_5)" transform="scale(0.666667 0.666667)" d="M546.572 135.442C556.367 139.519 565.934 144.38 575.582 148.812C595.48 157.955 615.39 167.097 635.342 176.12C645.466 180.698 655.512 185.455 665.646 190.009C668.762 191.409 671.872 192.813 675.024 194.129C677.245 195.055 679.755 195.835 681.644 197.348L681.973 198.683L681.637 221.143L681.691 323.486C681.477 323.127 681.315 322.784 681.002 322.502C680.257 323.287 679.748 323.836 679.405 324.897L678.519 325.022L678.072 325.674L677.784 325.721C676.84 325.946 675.837 326.512 675.007 327.011C674.507 327.311 674.825 327.136 674.018 327.318C673.206 327.501 673.526 327.395 672.838 327.835C671.465 328.711 669.472 329.166 667.961 329.826L667.191 329.996C665.723 330.413 664.225 330.997 662.762 331.453C662.019 331.685 661.33 332.04 660.564 332.27C659.803 332.498 659.09 332.806 658.317 333.025L654.482 334.2C649.717 335.323 645.1 337.583 640.312 338.634C639.133 338.892 638.101 339.425 636.938 339.748C636.388 339.9 635.899 340.099 635.336 340.217C630.943 341.137 626.804 343.267 622.396 344.161C620.611 344.524 617.73 345.523 616.125 346.3L615 346.679L614.46 346.867C613.653 347.136 612.784 347.252 612.021 347.62C610.208 348.493 606.968 349.305 604.95 349.749L602.051 350.613L599.226 351.57C598.557 351.796 598.869 351.708 598.261 351.811C597.699 351.907 598.018 351.824 597.498 352.07C596.987 352.313 596.6 352.386 596.053 352.504C593.21 353.122 590.359 354.314 587.599 355.245C586.184 355.723 588.34 355.005 586.38 355.384L585.75 355.656L578.33 357.726L577.816 357.866C576.692 358.162 577.788 357.885 576.55 358.112C575.217 358.356 575.017 359.025 574.285 360.013L573.235 361.103L572.754 361.128L572.711 440.746L572.665 441.285L572.592 496.686C568.156 499.108 563.55 501.119 559.017 503.343C551.528 507.017 544.075 510.785 536.625 514.538C510.17 527.864 483.758 541.264 457.326 554.638C441.225 562.784 425.105 570.889 409.008 579.042C403.415 581.875 397.845 584.739 392.225 587.518C389.395 588.917 386.566 590.493 383.6 591.574C383.6 583.705 383.599 575.835 383.587 567.965C383.581 563.845 383.93 559.298 383.293 555.243L383.232 510.602C383.496 509.359 383.29 507.692 383.292 506.384C383.294 503.277 383.292 500.17 383.315 497.062C383.409 484.817 383.637 472.588 383.636 460.334C383.632 432.419 383.605 404.504 383.536 376.589C383.514 367.999 383.418 359.401 383.421 350.812C383.422 348.278 383.681 345.779 383.616 343.239L383.834 342.605L384.293 205.459L385.652 205.532C389.206 202.439 395.826 200.752 400.227 198.955C406.543 196.375 412.839 193.719 419.101 191.008C424.267 188.771 429.279 186.262 434.397 183.938C437.239 182.647 440.208 181.635 443.062 180.358C452.252 176.248 461.392 172.044 470.625 168.029C484.832 161.851 499.285 156.146 513.413 149.808C515.582 149.597 519.188 147.44 521.284 146.454C529.653 143.455 538.914 139.942 546.572 135.442ZM384.293 205.459L383.834 342.605C385.054 342.522 386.228 342.417 387.375 341.96C390.338 340.78 393.255 339.217 396.162 337.881C402.666 334.894 409.159 331.9 415.631 328.842C438.265 318.147 460.671 306.969 483.11 295.875C495.522 289.739 508.166 284 520.44 277.592C523.915 275.778 528.987 273.727 531.668 270.941C527.251 269.631 523.1 267.015 518.965 264.993C513.369 262.256 507.653 259.707 501.996 257.094C478.67 246.322 455.311 235.618 431.94 224.946C422.363 220.572 412.826 216.198 403.112 212.131C397.372 209.728 391.644 207.24 385.652 205.532L384.293 205.459Z"/>
	<defs>
		<linearGradient id="gradient_6" gradientUnits="userSpaceOnUse" x1="611.34998" y1="239.89999" x2="642.65002" y2="338.35001">
			<stop offset="0" stop-color="#4E4E4E"/>
			<stop offset="1" stop-color="#8B8A8A"/>
		</linearGradient>
	</defs>
	<path fill="url(#gradient_6)" transform="scale(0.666667 0.666667)" d="M680.019 200.813C680.316 200.041 681.37 199.271 681.973 198.683L681.637 221.143L681.691 323.486C681.477 323.127 681.315 322.784 681.002 322.502C680.257 323.287 679.748 323.836 679.405 324.897L678.519 325.022L678.072 325.674L677.784 325.721C676.84 325.946 675.837 326.512 675.007 327.011C674.507 327.311 674.825 327.136 674.018 327.318C673.206 327.501 673.526 327.395 672.838 327.835C671.465 328.711 669.472 329.166 667.961 329.826L667.191 329.996C665.723 330.413 664.225 330.997 662.762 331.453C662.019 331.685 661.33 332.04 660.564 332.27C659.803 332.498 659.09 332.806 658.317 333.025L654.482 334.2C649.717 335.323 645.1 337.583 640.312 338.634C639.133 338.892 638.101 339.425 636.938 339.748C636.388 339.9 635.899 340.099 635.336 340.217C630.943 341.137 626.804 343.267 622.396 344.161C620.611 344.524 617.73 345.523 616.125 346.3L615 346.679L614.46 346.867C613.653 347.136 612.784 347.252 612.021 347.62C610.208 348.493 606.968 349.305 604.95 349.749L602.051 350.613L599.226 351.57C598.557 351.796 598.869 351.708 598.261 351.811C597.699 351.907 598.018 351.824 597.498 352.07C596.987 352.313 596.6 352.386 596.053 352.504C593.21 353.122 590.359 354.314 587.599 355.245C586.184 355.723 588.34 355.005 586.38 355.384L585.75 355.656L578.33 357.726L577.816 357.866C576.692 358.162 577.788 357.885 576.55 358.112C575.217 358.356 575.017 359.025 574.285 360.013L573.235 361.103L572.754 361.128C572.742 348.201 572.64 335.265 572.75 322.339C572.839 312.014 573.27 301.683 573.337 291.359C573.385 284.008 573.419 276.657 573.45 269.307C573.467 265.284 573.144 260.899 573.747 256.933L573.815 252.499C575.665 250.939 578.977 249.893 581.212 248.87C586.574 246.413 591.933 243.956 597.306 241.523C613.24 234.308 629.095 226.905 644.999 219.621C654.891 215.09 665.292 210.919 674.771 205.577C676.806 204.43 679.364 203.167 680.019 200.813Z"/>
	<path fill="#4F4E4E" transform="scale(0.666667 0.666667)" d="M680.019 200.813C680.316 200.041 681.37 199.271 681.973 198.683L681.637 221.143L681.218 220.674L681.194 216.928C680.85 217.577 679.986 219.763 679.501 220.126C679.068 220.452 677.992 220.783 677.489 221.006C676.648 221.379 677.102 221.144 676.51 221.559C675.528 222.247 674.102 222.561 672.977 222.98C670.594 223.867 668.16 224.863 665.73 225.589L636.164 234.84L616.535 240.746L597.035 246.746L592.487 248.267C591.413 248.632 590.378 248.649 589.37 249.22C588.761 249.565 588.356 249.693 587.687 249.851C586.462 250.14 585.236 250.517 584.088 251.034C583.478 251.309 583.022 251.368 582.377 251.483C581.951 251.559 581.671 251.714 581.283 251.892C580.255 252.364 579.183 252.21 578.085 252.132L577.886 251.607L577.542 251.927C576.796 252.591 575.083 253.516 574.59 254.278C574.202 254.878 574.141 256.169 573.747 256.933L573.815 252.499C575.665 250.939 578.977 249.893 581.212 248.87C586.574 246.413 591.933 243.956 597.306 241.523C613.24 234.308 629.095 226.905 644.999 219.621C654.891 215.09 665.292 210.919 674.771 205.577C676.806 204.43 679.364 203.167 680.019 200.813Z"/>
	<path fill="#2E2D2E" transform="scale(0.666667 0.666667)" d="M546.572 135.442C556.367 139.519 565.934 144.38 575.582 148.812C595.48 157.955 615.39 167.097 635.342 176.12C645.466 180.698 655.512 185.455 665.646 190.009C668.762 191.409 671.872 192.813 675.024 194.129C677.245 195.055 679.755 195.835 681.644 197.348L681.973 198.683C681.37 199.271 680.316 200.041 680.019 200.813C673.182 205.117 665.879 208.484 658.573 211.905C648.814 216.474 638.987 220.889 629.166 225.324C608.028 234.87 587.087 244.864 565.927 254.358C558.656 257.62 551.408 260.933 544.145 264.214C540.231 265.983 534.769 267.546 531.74 270.536L531.668 270.941C527.251 269.631 523.1 267.015 518.965 264.993C513.369 262.256 507.653 259.707 501.996 257.094C478.67 246.322 455.311 235.618 431.94 224.946C422.363 220.572 412.826 216.198 403.112 212.131C397.372 209.728 391.644 207.24 385.652 205.532C389.206 202.439 395.826 200.752 400.227 198.955C406.543 196.375 412.839 193.719 419.101 191.008C424.267 188.771 429.279 186.262 434.397 183.938C437.239 182.647 440.208 181.635 443.062 180.358C452.252 176.248 461.392 172.044 470.625 168.029C484.832 161.851 499.285 156.146 513.413 149.808C515.582 149.597 519.188 147.44 521.284 146.454C529.653 143.455 538.914 139.942 546.572 135.442Z"/>
	<defs>
		<linearGradient id="gradient_7" gradientUnits="userSpaceOnUse" x1="199.44" y1="600.026" x2="261.13501" y2="231.46201">
			<stop offset="0" stop-color="#2D2D2D"/>
			<stop offset="1" stop-color="#838282"/>
		</linearGradient>
	</defs>
	<path fill="url(#gradient_7)" transform="scale(0.666667 0.666667)" d="M84.8707 283.729L84.7264 200.916L195.123 251.247L239.25 272.511L241.122 271.504C246.027 268.536 251.718 266.247 256.891 263.711C270.771 256.907 284.818 250.447 298.832 243.926C326.369 231.113 353.702 217.235 381.843 205.821L384.293 205.459L383.834 342.605L383.616 343.239C383.681 345.779 383.422 348.278 383.421 350.812C383.418 359.401 383.514 367.999 383.536 376.589C383.605 404.504 383.632 432.419 383.636 460.334C383.637 472.588 383.409 484.817 383.315 497.062C383.292 500.17 383.294 503.277 383.292 506.384C383.29 507.692 383.496 509.359 383.232 510.602L383.293 555.243L383.095 557.458L382.968 712.514L382.459 712.472C378.765 712.189 373.861 708.502 370.486 706.701C364.685 703.607 358.813 700.539 352.946 697.571C283.376 662.384 213.963 626.974 145.061 590.489C143.88 590.171 142.424 589.15 141.321 588.566C138.234 586.932 135.157 585.267 132.041 583.688C116.336 575.725 100.372 568.27 85.1035 559.473L84.3376 386.079L84.8707 283.729Z"/>
	<path fill="#2E2D2E" transform="scale(0.666667 0.666667)" d="M382.465 558.047L382.12 558.036L382.009 557.18C381.155 549.8 382.039 542.282 382.048 534.893C382.053 529.724 382.02 524.556 382.028 519.387C382.031 517.228 381.776 514.618 382.153 512.502C382.289 511.736 382.761 511.191 383.232 510.602L383.293 555.243L383.095 557.458L382.465 558.047Z"/>
	<path fill="#898989" transform="scale(0.666667 0.666667)" d="M195.123 251.247L239.25 272.511L241.122 271.504C243.851 273.759 247.566 275.146 250.741 276.701C256.639 279.59 262.55 282.455 268.472 285.295C280.506 291.066 292.402 297.123 304.432 302.907L304.175 303L303.469 303.281L298.781 300.844C298.36 301.259 297.902 301.429 297.375 301.684L296.25 300.934C295.45 301.467 294.933 301.309 294 301.309C292.915 302.032 291.83 301.46 290.625 301.684C288.99 301.987 287.847 302.089 286.125 302.059C285.061 301.352 282.933 301.685 281.625 301.684C280.916 302.157 280.922 302.059 280.125 302.059C279.02 301.325 276.094 301.687 274.695 301.687C269.88 301.686 265.065 301.685 260.25 301.684C259.482 302.196 259.268 302.059 258.375 302.059C257.438 301.436 255.774 301.685 254.625 301.684C253.229 302.615 234.324 302.059 231.375 302.059C229.981 302.988 224.665 302.434 222.75 302.434C221.228 303.449 208.298 302.809 205.5 302.809C204.648 303.377 203.878 303.184 202.875 303.184C200.999 304.434 198.246 302.551 196.369 304.428L196.125 304.684L195.566 304.125L195.375 303.562C195.383 308.713 195.39 313.864 195.388 319.015C195.387 321.289 195.727 324.136 195.188 326.338L195.123 251.247Z"/>
	<defs>
		<linearGradient id="gradient_8" gradientUnits="userSpaceOnUse" x1="154.43401" y1="347.42099" x2="121.17" y2="406.04501">
			<stop offset="0" stop-color="#828181"/>
			<stop offset="1" stop-color="#A5A4A4"/>
		</linearGradient>
	</defs>
	<path fill="url(#gradient_8)" transform="scale(0.666667 0.666667)" d="M84.8707 283.729C85.1265 282.766 85.3468 281.88 85.4062 280.877C85.5083 283.108 85.3569 285.419 85.5919 287.625C85.7371 288.988 85.4762 290.285 85.125 291.562C85.0821 291.719 85.1418 292.231 85.1534 292.377C85.4065 295.58 85.4636 299.054 85.2169 302.25L85.3125 310.316L85.8731 310.502L86.0662 311.437C87.2308 310.507 87.6787 310.576 89.1562 310.594L89.625 311.062L90.1875 311.066L91.2775 311.805C92.0192 312.299 92.7717 312.615 93.5616 313.011C94.5841 313.523 95.2994 314.311 96.375 314.816L101.248 317.627L103.277 318.93C103.845 319.308 104.389 319.579 104.998 319.877L106.71 320.722C107.222 320.977 107.547 321.235 108 321.566C108.731 322.101 109.457 322.455 110.248 322.877L111.75 323.816L112.3 324.085C113.154 324.511 113.874 325.074 114.748 325.502L116.46 326.347C116.972 326.602 117.297 326.86 117.75 327.191C118.475 327.721 119.196 328.109 119.998 328.502C121.512 329.243 122.876 329.995 124.277 330.93C124.847 331.309 125.401 331.558 125.998 331.877L128.027 333.18C128.595 333.558 129.139 333.829 129.748 334.127L131.46 334.972L140.248 340.127C141.762 340.868 143.126 341.62 144.527 342.555L149.623 345.377L151.125 346.316C152.201 346.946 153.23 347.481 154.277 348.18C154.845 348.558 155.389 348.829 155.998 349.127L157.71 349.972L176.998 361.127L179.811 362.522L182.623 364.127L184.335 364.972C185.329 365.468 186.067 365.946 187.123 366.377C188.686 367.015 190.492 367.865 191.998 368.627L192.362 368.909C192.898 369.311 192.555 369.124 193.106 369.261C193.74 369.418 194.079 369.875 194.531 370.314L194.625 351.938L195.184 351.938L195.215 352.588C195.253 353.136 195.541 353.718 195.559 354.188C195.608 355.5 195.555 357.174 195.467 358.5C195.384 359.74 195.875 361.213 195.184 362.25C195.109 375.085 194.928 387.937 195.086 400.771C195.143 405.322 195.662 409.837 195.753 414.375C195.868 420.068 195.569 425.754 195.607 431.438C195.613 432.349 196.043 434.818 195.789 435.562C195.59 436.149 194.442 436.344 195.029 436.932C196.553 438.46 196.795 438.843 196.799 441.056L196.688 445.684C195.097 444.148 197.432 439.786 195.203 438.167C193.072 436.621 190.466 435.772 188.048 434.775C184.414 433.277 180.802 431.729 177.217 430.117C161.364 422.989 145.562 415.752 129.757 408.518C119.971 404.039 109.991 399.719 100.402 394.85C97.705 393.48 94.9648 392.125 92.3818 390.551C89.8656 389.018 87.1554 386.879 84.3376 386.079L84.8707 283.729Z"/>
	<path fill="#2E2D2E" transform="scale(0.666667 0.666667)" d="M381.843 205.821L384.293 205.459L383.834 342.605L383.616 343.239C383.117 342.842 382.958 342.593 382.312 342.502C382.138 343.808 381.972 345.825 382.283 347.124C383.337 351.527 382.72 357.136 382.53 361.694C382.437 363.915 382.543 366.265 382.063 368.438L381.562 368.216C381.155 364.963 381.307 361.589 381.304 358.316C381.299 352.343 381.383 346.37 381.46 340.398L304.432 302.907C292.402 297.123 280.506 291.066 268.472 285.295C262.55 282.455 256.639 279.59 250.741 276.701C247.566 275.146 243.851 273.759 241.122 271.504C246.027 268.536 251.718 266.247 256.891 263.711C270.771 256.907 284.818 250.447 298.832 243.926C326.369 231.113 353.702 217.235 381.843 205.821Z"/>
	<defs>
		<linearGradient id="gradient_9" gradientUnits="userSpaceOnUse" x1="270.22299" y1="714.92999" x2="266.06601" y2="584.08099">
			<stop offset="0" stop-color="#010000"/>
			<stop offset="1" stop-color="#2A2A2A"/>
		</linearGradient>
	</defs>
	<path fill="url(#gradient_9)" transform="scale(0.666667 0.666667)" d="M382.465 558.047L383.095 557.458L382.968 712.514L382.459 712.472C378.765 712.189 373.861 708.502 370.486 706.701C364.685 703.607 358.813 700.539 352.946 697.571C283.376 662.384 213.963 626.974 145.061 590.489C145.688 590.504 146.24 590.554 146.86 590.673L147.562 590.816C148.362 590.963 148.913 591.135 149.625 591.566L150.184 591.938L150.75 591.658L151.127 591.377L151.688 591.191L151.877 590.252L152.625 590.066L153.184 590.438L154.125 590.066C154.901 589.642 154.767 589.691 155.625 589.691C156.69 588.981 156.308 589.704 157.125 589.5C157.228 589.474 157.573 588.98 157.688 588.941C158.205 588.764 159.523 588.941 160.125 588.941C160.925 588.408 161.442 588.566 162.375 588.566C163.315 587.94 164.972 588.191 166.125 588.191C166.925 587.658 167.442 587.816 168.375 587.816C169.441 587.105 171.564 587.441 172.875 587.441C173.983 586.703 176.376 587.066 177.75 587.066L178.312 586.691L178.594 587.156C178.75 587.001 178.862 586.782 179.062 586.691C180.121 586.214 191.723 586.691 193.875 586.691C195.178 585.823 201.98 586.131 203.814 586.408C204.969 586.583 204.422 585.941 204.938 585.941C205.202 585.941 205.236 586.5 205.5 586.5C205.643 586.5 205.882 585.992 206.062 585.941C207.212 585.62 209.584 585.941 210.838 585.941C215.559 585.941 220.279 585.941 225 585.941C226.303 585.073 233.105 585.381 234.939 585.658L235.5 585.75L236.062 585.191L236.625 585.75L237.094 585.377L237.469 585.656C237.625 585.501 237.736 585.279 237.938 585.191C238.485 584.954 240.734 585.191 241.424 585.191C245.574 585.191 249.725 585.191 253.875 585.191C255.178 584.323 261.98 584.631 263.814 584.908L264.375 585L264.938 584.441L265.5 585L265.969 584.627L266.344 584.906C266.5 584.751 266.611 584.53 266.812 584.441C267.338 584.211 269.551 584.441 270.217 584.441C274.27 584.441 278.322 584.441 282.375 584.441C283.917 583.413 291.419 584.066 293.625 584.066L294.188 583.691L294.75 584.25L295.312 583.691L295.875 584.25L296.344 583.877L296.719 584.156C297.56 583.321 300.684 583.691 301.96 583.691C305.932 583.691 309.903 583.691 313.875 583.691C315.431 582.654 321.487 583.316 323.625 583.316L324.188 582.941L324.469 583.406L325.125 582.941L325.594 583.406C326.443 582.563 329.752 582.941 331.05 582.941C335.2 582.941 339.35 582.941 343.5 582.941C345.088 581.882 351.429 582.566 353.625 582.566L354.188 582.191L354.75 582.75L355.312 582.191L355.875 582.75C357.712 580.925 369.556 583.294 372.782 582.004L373.125 581.816C374.617 582.808 376.313 581.872 378.162 583.35C378.826 583.88 379.228 583.689 380.062 583.691C380.642 584.432 381.143 585.013 381.877 585.6L382.309 585.938L382.309 586.875L382.875 587.438L382.465 558.047Z"/>
</svg>
